<?xml version="1.0" encoding="UTF-8"?>
<svg xmlns="http://www.w3.org/2000/svg" width="1010" height="468" viewBox="0 0 1010 468">
  <rect x="0" y="0" width="1010" height="468" fill="#74cf88" rx="8" ry="8"/>
  <rect x="10" y="26" width="990" height="16" fill="#0a0c12"/>
  <rect x="10" y="42" width="9" height="16" fill="#0a0c12"/>
  <rect x="19" y="42" width="324" height="16" fill="#161820"/>
  <rect x="343" y="42" width="18" height="16" fill="#0a0c12"/>
  <rect x="361" y="42" width="621" height="16" fill="#161820"/>
  <rect x="982" y="42" width="18" height="16" fill="#0a0c12"/>
  <rect x="10" y="58" width="9" height="16" fill="#0a0c12"/>
  <rect x="19" y="58" width="324" height="16" fill="#161820"/>
  <rect x="343" y="58" width="18" height="16" fill="#0a0c12"/>
  <rect x="361" y="58" width="621" height="16" fill="#161820"/>
  <rect x="982" y="58" width="18" height="16" fill="#0a0c12"/>
  <rect x="10" y="74" width="9" height="16" fill="#0a0c12"/>
  <rect x="19" y="74" width="324" height="16" fill="#161820"/>
  <rect x="343" y="74" width="18" height="16" fill="#0a0c12"/>
  <rect x="361" y="74" width="18" height="16" fill="#161820"/>
  <rect x="883" y="74" width="99" height="16" fill="#161820"/>
  <rect x="982" y="74" width="18" height="16" fill="#0a0c12"/>
  <rect x="10" y="90" width="9" height="16" fill="#0a0c12"/>
  <rect x="19" y="90" width="324" height="16" fill="#161820"/>
  <rect x="343" y="90" width="18" height="16" fill="#0a0c12"/>
  <rect x="361" y="90" width="621" height="16" fill="#161820"/>
  <rect x="982" y="90" width="18" height="16" fill="#0a0c12"/>
  <rect x="10" y="106" width="9" height="16" fill="#0a0c12"/>
  <rect x="19" y="106" width="18" height="16" fill="#161820"/>
  <rect x="37" y="106" width="288" height="16" fill="#18241c"/>
  <rect x="325" y="106" width="18" height="16" fill="#161820"/>
  <rect x="343" y="106" width="18" height="16" fill="#0a0c12"/>
  <rect x="361" y="106" width="621" height="16" fill="#161820"/>
  <rect x="982" y="106" width="18" height="16" fill="#0a0c12"/>
  <rect x="10" y="122" width="9" height="16" fill="#0a0c12"/>
  <rect x="19" y="122" width="324" height="16" fill="#161820"/>
  <rect x="343" y="122" width="18" height="16" fill="#0a0c12"/>
  <rect x="361" y="122" width="621" height="16" fill="#161820"/>
  <rect x="982" y="122" width="18" height="16" fill="#0a0c12"/>
  <rect x="10" y="138" width="9" height="16" fill="#0a0c12"/>
  <rect x="19" y="138" width="324" height="16" fill="#161820"/>
  <rect x="343" y="138" width="18" height="16" fill="#0a0c12"/>
  <rect x="361" y="138" width="9" height="16" fill="#161820"/>
  <rect x="370" y="138" width="612" height="16" fill="#1c281e"/>
  <rect x="982" y="138" width="18" height="16" fill="#0a0c12"/>
  <rect x="10" y="154" width="9" height="16" fill="#0a0c12"/>
  <rect x="19" y="154" width="324" height="16" fill="#161820"/>
  <rect x="343" y="154" width="18" height="16" fill="#0a0c12"/>
  <rect x="361" y="154" width="621" height="16" fill="#161820"/>
  <rect x="982" y="154" width="18" height="16" fill="#0a0c12"/>
  <rect x="10" y="170" width="9" height="16" fill="#0a0c12"/>
  <rect x="19" y="170" width="324" height="16" fill="#161820"/>
  <rect x="343" y="170" width="18" height="16" fill="#0a0c12"/>
  <rect x="361" y="170" width="621" height="16" fill="#161820"/>
  <rect x="982" y="170" width="18" height="16" fill="#0a0c12"/>
  <rect x="10" y="186" width="9" height="16" fill="#0a0c12"/>
  <rect x="19" y="186" width="324" height="16" fill="#161820"/>
  <rect x="343" y="186" width="18" height="16" fill="#0a0c12"/>
  <rect x="361" y="186" width="621" height="16" fill="#161820"/>
  <rect x="982" y="186" width="18" height="16" fill="#0a0c12"/>
  <rect x="10" y="202" width="9" height="16" fill="#0a0c12"/>
  <rect x="19" y="202" width="324" height="16" fill="#161820"/>
  <rect x="343" y="202" width="18" height="16" fill="#0a0c12"/>
  <rect x="361" y="202" width="621" height="16" fill="#161820"/>
  <rect x="982" y="202" width="18" height="16" fill="#0a0c12"/>
  <rect x="10" y="218" width="9" height="16" fill="#0a0c12"/>
  <rect x="19" y="218" width="324" height="16" fill="#161820"/>
  <rect x="343" y="218" width="18" height="16" fill="#0a0c12"/>
  <rect x="361" y="218" width="621" height="16" fill="#161820"/>
  <rect x="982" y="218" width="18" height="16" fill="#0a0c12"/>
  <rect x="10" y="234" width="9" height="16" fill="#0a0c12"/>
  <rect x="19" y="234" width="324" height="16" fill="#161820"/>
  <rect x="343" y="234" width="18" height="16" fill="#0a0c12"/>
  <rect x="361" y="234" width="621" height="16" fill="#161820"/>
  <rect x="982" y="234" width="18" height="16" fill="#0a0c12"/>
  <rect x="10" y="250" width="9" height="16" fill="#0a0c12"/>
  <rect x="19" y="250" width="324" height="16" fill="#161820"/>
  <rect x="343" y="250" width="18" height="16" fill="#0a0c12"/>
  <rect x="361" y="250" width="621" height="16" fill="#161820"/>
  <rect x="982" y="250" width="18" height="16" fill="#0a0c12"/>
  <rect x="10" y="266" width="9" height="16" fill="#0a0c12"/>
  <rect x="19" y="266" width="324" height="16" fill="#161820"/>
  <rect x="343" y="266" width="18" height="16" fill="#0a0c12"/>
  <rect x="361" y="266" width="621" height="16" fill="#161820"/>
  <rect x="982" y="266" width="18" height="16" fill="#0a0c12"/>
  <rect x="10" y="282" width="9" height="16" fill="#0a0c12"/>
  <rect x="19" y="282" width="324" height="16" fill="#161820"/>
  <rect x="343" y="282" width="18" height="16" fill="#0a0c12"/>
  <rect x="361" y="282" width="621" height="16" fill="#161820"/>
  <rect x="982" y="282" width="18" height="16" fill="#0a0c12"/>
  <rect x="10" y="298" width="9" height="16" fill="#0a0c12"/>
  <rect x="19" y="298" width="324" height="16" fill="#161820"/>
  <rect x="343" y="298" width="18" height="16" fill="#0a0c12"/>
  <rect x="361" y="298" width="621" height="16" fill="#161820"/>
  <rect x="982" y="298" width="18" height="16" fill="#0a0c12"/>
  <rect x="10" y="314" width="9" height="16" fill="#0a0c12"/>
  <rect x="19" y="314" width="324" height="16" fill="#161820"/>
  <rect x="343" y="314" width="18" height="16" fill="#0a0c12"/>
  <rect x="361" y="314" width="621" height="16" fill="#161820"/>
  <rect x="982" y="314" width="18" height="16" fill="#0a0c12"/>
  <rect x="10" y="330" width="9" height="16" fill="#0a0c12"/>
  <rect x="19" y="330" width="324" height="16" fill="#161820"/>
  <rect x="343" y="330" width="18" height="16" fill="#0a0c12"/>
  <rect x="361" y="330" width="621" height="16" fill="#161820"/>
  <rect x="982" y="330" width="18" height="16" fill="#0a0c12"/>
  <rect x="10" y="346" width="9" height="16" fill="#0a0c12"/>
  <rect x="19" y="346" width="324" height="16" fill="#161820"/>
  <rect x="343" y="346" width="18" height="16" fill="#0a0c12"/>
  <rect x="361" y="346" width="621" height="16" fill="#161820"/>
  <rect x="982" y="346" width="18" height="16" fill="#0a0c12"/>
  <rect x="10" y="362" width="9" height="16" fill="#0a0c12"/>
  <rect x="19" y="362" width="324" height="16" fill="#161820"/>
  <rect x="343" y="362" width="657" height="16" fill="#0a0c12"/>
  <rect x="10" y="378" width="9" height="16" fill="#0a0c12"/>
  <rect x="19" y="378" width="972" height="16" fill="#161820"/>
  <rect x="991" y="378" width="9" height="16" fill="#0a0c12"/>
  <rect x="10" y="394" width="9" height="16" fill="#0a0c12"/>
  <rect x="19" y="394" width="972" height="16" fill="#161820"/>
  <rect x="991" y="394" width="9" height="16" fill="#0a0c12"/>
  <rect x="10" y="410" width="9" height="16" fill="#0a0c12"/>
  <rect x="19" y="410" width="972" height="16" fill="#161820"/>
  <rect x="991" y="410" width="9" height="16" fill="#0a0c12"/>
  <rect x="10" y="426" width="990" height="16" fill="#0a0c12"/>
  <rect x="10" y="442" width="27" height="16" fill="#0a0c12"/>
  <rect x="478" y="442" width="522" height="16" fill="#0a0c12"/>
  <text x="10" y="10" xml:space="preserve" font-family="JetBrains Mono, 'Fira Code', SFMono-Regular, Consolas, Menlo, monospace" font-size="13" dominant-baseline="hanging">
    <tspan fill="#0a0c12">  </tspan>
    <tspan fill="#000000" font-weight="700">File manager — tree + detail pane</tspan>
    <tspan fill="#0a0c12">                                                                           </tspan>
  </text>
  <text x="10" y="26" xml:space="preserve" font-family="JetBrains Mono, 'Fira Code', SFMono-Regular, Consolas, Menlo, monospace" font-size="13" dominant-baseline="hanging">
    <tspan fill="#878c9b">                                                                                                              </tspan>
  </text>
  <text x="10" y="42" xml:space="preserve" font-family="JetBrains Mono, 'Fira Code', SFMono-Regular, Consolas, Menlo, monospace" font-size="13" dominant-baseline="hanging">
    <tspan fill="#878c9b"> +-</tspan>
    <tspan fill="#878c9b" font-weight="700">[ Workspace ]</tspan>
    <tspan fill="#878c9b">--------------------+  +-</tspan>
    <tspan fill="#878c9b" font-weight="700">[ Details ]</tspan>
    <tspan fill="#878c9b">-------------------------------------------------------+  </tspan>
  </text>
  <text x="10" y="58" xml:space="preserve" font-family="JetBrains Mono, 'Fira Code', SFMono-Regular, Consolas, Menlo, monospace" font-size="13" dominant-baseline="hanging">
    <tspan fill="#878c9b"> |                                  |  |                                                                   |  </tspan>
  </text>
  <text x="10" y="74" xml:space="preserve" font-family="JetBrains Mono, 'Fira Code', SFMono-Regular, Consolas, Menlo, monospace" font-size="13" dominant-baseline="hanging">
    <tspan fill="#878c9b"> | </tspan>
    <tspan fill="#e6e6e6">▸ examples</tspan>
    <tspan fill="#878c9b">                       |  | </tspan>
    <tspan fill="#000000" font-weight="700">Name                       Kind        Size     Modified</tspan>
    <tspan fill="#878c9b">          |  </tspan>
  </text>
  <text x="10" y="90" xml:space="preserve" font-family="JetBrains Mono, 'Fira Code', SFMono-Regular, Consolas, Menlo, monospace" font-size="13" dominant-baseline="hanging">
    <tspan fill="#878c9b"> | </tspan>
    <tspan fill="#e6e6e6">  ▸ widget_examples</tspan>
    <tspan fill="#878c9b">              |  |                                                                   |  </tspan>
  </text>
  <text x="10" y="106" xml:space="preserve" font-family="JetBrains Mono, 'Fira Code', SFMono-Regular, Consolas, Menlo, monospace" font-size="13" dominant-baseline="hanging">
    <tspan fill="#878c9b"> | </tspan>
    <tspan fill="#74cf88" font-weight="700">    ▶ system_monitor_example.zig</tspan>
    <tspan fill="#878c9b"> |  | </tspan>
    <tspan fill="#e6e6e6">src/                     dir             -   just now</tspan>
    <tspan fill="#878c9b">             |  </tspan>
  </text>
  <text x="10" y="122" xml:space="preserve" font-family="JetBrains Mono, 'Fira Code', SFMono-Regular, Consolas, Menlo, monospace" font-size="13" dominant-baseline="hanging">
    <tspan fill="#878c9b"> | </tspan>
    <tspan fill="#e6e6e6">    ▶ file_manager_example.zig</tspan>
    <tspan fill="#878c9b">   |  | </tspan>
    <tspan fill="#e6e6e6">assets/                  dir             -   just now</tspan>
    <tspan fill="#878c9b">             |  </tspan>
  </text>
  <text x="10" y="138" xml:space="preserve" font-family="JetBrains Mono, 'Fira Code', SFMono-Regular, Consolas, Menlo, monospace" font-size="13" dominant-baseline="hanging">
    <tspan fill="#878c9b"> | </tspan>
    <tspan fill="#e6e6e6">    ▶ showcase_demo.zig</tspan>
    <tspan fill="#878c9b">          |  |</tspan>
    <tspan fill="#0a0c12"> </tspan>
    <tspan fill="#ffffff" font-weight="700">build.zig                file         9 KB     1m ago</tspan>
    <tspan fill="#0a0c12">              </tspan>
    <tspan fill="#878c9b">  </tspan>
  </text>
  <text x="10" y="154" xml:space="preserve" font-family="JetBrains Mono, 'Fira Code', SFMono-Regular, Consolas, Menlo, monospace" font-size="13" dominant-baseline="hanging">
    <tspan fill="#878c9b"> | </tspan>
    <tspan fill="#e6e6e6">  ▸ realworld</tspan>
    <tspan fill="#878c9b">                    |  | </tspan>
    <tspan fill="#e6e6e6">README.md                file        24 KB     5m ago</tspan>
    <tspan fill="#878c9b">             |  </tspan>
  </text>
  <text x="10" y="170" xml:space="preserve" font-family="JetBrains Mono, 'Fira Code', SFMono-Regular, Consolas, Menlo, monospace" font-size="13" dominant-baseline="hanging">
    <tspan fill="#878c9b"> | </tspan>
    <tspan fill="#e6e6e6">    ▶ dashboard_demo.zig</tspan>
    <tspan fill="#878c9b">         |  | </tspan>
    <tspan fill="#e6e6e6">zig-out/                 dir             -     9m ago</tspan>
    <tspan fill="#878c9b">             |  </tspan>
  </text>
  <text x="10" y="186" xml:space="preserve" font-family="JetBrains Mono, 'Fira Code', SFMono-Regular, Consolas, Menlo, monospace" font-size="13" dominant-baseline="hanging">
    <tspan fill="#878c9b"> |                                  |  |                                                                   |  </tspan>
  </text>
  <text x="10" y="202" xml:space="preserve" font-family="JetBrains Mono, 'Fira Code', SFMono-Regular, Consolas, Menlo, monospace" font-size="13" dominant-baseline="hanging">
    <tspan fill="#878c9b"> |                                  |  |                                                                   |  </tspan>
  </text>
  <text x="10" y="218" xml:space="preserve" font-family="JetBrains Mono, 'Fira Code', SFMono-Regular, Consolas, Menlo, monospace" font-size="13" dominant-baseline="hanging">
    <tspan fill="#878c9b"> |                                  |  |                                                                   |  </tspan>
  </text>
  <text x="10" y="234" xml:space="preserve" font-family="JetBrains Mono, 'Fira Code', SFMono-Regular, Consolas, Menlo, monospace" font-size="13" dominant-baseline="hanging">
    <tspan fill="#878c9b"> |                                  |  |                                                                   |  </tspan>
  </text>
  <text x="10" y="250" xml:space="preserve" font-family="JetBrains Mono, 'Fira Code', SFMono-Regular, Consolas, Menlo, monospace" font-size="13" dominant-baseline="hanging">
    <tspan fill="#878c9b"> |                                  |  |                                                                   |  </tspan>
  </text>
  <text x="10" y="266" xml:space="preserve" font-family="JetBrains Mono, 'Fira Code', SFMono-Regular, Consolas, Menlo, monospace" font-size="13" dominant-baseline="hanging">
    <tspan fill="#878c9b"> |                                  |  |                                                                   |  </tspan>
  </text>
  <text x="10" y="282" xml:space="preserve" font-family="JetBrains Mono, 'Fira Code', SFMono-Regular, Consolas, Menlo, monospace" font-size="13" dominant-baseline="hanging">
    <tspan fill="#878c9b"> |                                  |  |                                                                   |  </tspan>
  </text>
  <text x="10" y="298" xml:space="preserve" font-family="JetBrains Mono, 'Fira Code', SFMono-Regular, Consolas, Menlo, monospace" font-size="13" dominant-baseline="hanging">
    <tspan fill="#878c9b"> |                                  |  |                                                                   |  </tspan>
  </text>
  <text x="10" y="314" xml:space="preserve" font-family="JetBrains Mono, 'Fira Code', SFMono-Regular, Consolas, Menlo, monospace" font-size="13" dominant-baseline="hanging">
    <tspan fill="#878c9b"> |                                  |  |                                                                   |  </tspan>
  </text>
  <text x="10" y="330" xml:space="preserve" font-family="JetBrains Mono, 'Fira Code', SFMono-Regular, Consolas, Menlo, monospace" font-size="13" dominant-baseline="hanging">
    <tspan fill="#878c9b"> |                                  |  |                                                                   |  </tspan>
  </text>
  <text x="10" y="346" xml:space="preserve" font-family="JetBrains Mono, 'Fira Code', SFMono-Regular, Consolas, Menlo, monospace" font-size="13" dominant-baseline="hanging">
    <tspan fill="#878c9b"> |                                  |  +-------------------------------------------------------------------+  </tspan>
  </text>
  <text x="10" y="362" xml:space="preserve" font-family="JetBrains Mono, 'Fira Code', SFMono-Regular, Consolas, Menlo, monospace" font-size="13" dominant-baseline="hanging">
    <tspan fill="#878c9b"> |                                  |                                                                         </tspan>
  </text>
  <text x="10" y="378" xml:space="preserve" font-family="JetBrains Mono, 'Fira Code', SFMono-Regular, Consolas, Menlo, monospace" font-size="13" dominant-baseline="hanging">
    <tspan fill="#878c9b"> +-</tspan>
    <tspan fill="#878c9b" font-weight="700">[ Status ]</tspan>
    <tspan fill="#878c9b">-----------------------------------------------------------------------------------------------+ </tspan>
  </text>
  <text x="10" y="394" xml:space="preserve" font-family="JetBrains Mono, 'Fira Code', SFMono-Regular, Consolas, Menlo, monospace" font-size="13" dominant-baseline="hanging">
    <tspan fill="#878c9b"> | </tspan>
    <tspan fill="#74cf88" font-weight="700">Navigation: arrows, enter to open, space for menu • Active theme: Forest</tspan>
    <tspan fill="#878c9b">                                 | </tspan>
  </text>
  <text x="10" y="410" xml:space="preserve" font-family="JetBrains Mono, 'Fira Code', SFMono-Regular, Consolas, Menlo, monospace" font-size="13" dominant-baseline="hanging">
    <tspan fill="#878c9b"> +----------------------------------------------------------------------------------------------------------+ </tspan>
  </text>
  <text x="10" y="426" xml:space="preserve" font-family="JetBrains Mono, 'Fira Code', SFMono-Regular, Consolas, Menlo, monospace" font-size="13" dominant-baseline="hanging">
    <tspan fill="#878c9b">                                                                                                              </tspan>
  </text>
  <text x="10" y="442" xml:space="preserve" font-family="JetBrains Mono, 'Fira Code', SFMono-Regular, Consolas, Menlo, monospace" font-size="13" dominant-baseline="hanging">
    <tspan fill="#878c9b">   </tspan>
    <tspan fill="#0a0c12" font-weight="700">Tip: use incremental search to jump between nodes</tspan>
    <tspan fill="#878c9b">                                                          </tspan>
  </text>
</svg>
