<?xml version="1.0" encoding="UTF-8"?>
<svg xmlns="http://www.w3.org/2000/svg" width="1200" height="680" viewBox="0 0 1200 680">
<defs>
<linearGradient id="surface" x1="0" y1="0" x2="1" y2="1">
<stop offset="0" stop-color="#111827"/>
<stop offset="1" stop-color="#070b12"/>
</linearGradient>
<filter id="shadow" x="-10%" y="-10%" width="120%" height="125%">
<feDropShadow dx="0" dy="18" stdDeviation="22" flood-color="#000000" flood-opacity="0.38"/>
</filter>
</defs>
<rect width="1200" height="680" fill="#05070b"/>
<rect x="42" y="38" width="1116" height="604" rx="22" fill="url(#surface)" stroke="#263244" stroke-width="1.5" filter="url(#shadow)"/>
<rect x="42" y="38" width="1116" height="46" rx="22" fill="#86efac"/>
<rect x="42" y="66" width="1116" height="18" fill="#86efac"/>
<circle cx="72" cy="61" r="6" fill="#07111c" opacity="0.72"/>
<circle cx="94" cy="61" r="6" fill="#07111c" opacity="0.52"/>
<circle cx="116" cy="61" r="6" fill="#07111c" opacity="0.36"/>
<text x="150" y="66" font-family="monospace" font-size="18" font-weight="700" fill="#061018">zit file manager</text>
<text x="1128" y="66" text-anchor="end" font-family="monospace" font-size="13" fill="#061018" opacity="0.76">tree view / typeahead / detail pane</text>
<rect x="72" y="112" width="340" height="466" rx="12" fill="#0b111c" stroke="#233047" stroke-width="1"/>
<rect x="72" y="112" width="340" height="36" rx="12" fill="#111a2a"/>
<rect x="72" y="137" width="340" height="11" fill="#111a2a"/>
<rect x="88" y="125" width="8" height="8" rx="2" fill="#86efac"/>
<text x="106" y="136" text-anchor="start" font-family="monospace" font-size="14" font-weight="700" fill="#e8f0fb">Workspace Tree</text>
<text x="106" y="176" text-anchor="start" font-family="monospace" font-size="15" font-weight="700" fill="#e8f0fb">zit/</text>
<text x="128" y="218" text-anchor="start" font-family="monospace" font-size="15" font-weight="700" fill="#86efac">examples/</text>
<text x="150" y="260" text-anchor="start" font-family="monospace" font-size="15" font-weight="560" fill="#dbe7f3">realworld/</text>
<rect x="96" y="279" width="288" height="32" rx="7" fill="#183322"/>
<text x="172" y="302" text-anchor="start" font-family="monospace" font-size="15" font-weight="560" fill="#dbe7f3">file_manager.zig</text>
<text x="172" y="344" text-anchor="start" font-family="monospace" font-size="15" font-weight="560" fill="#dbe7f3">widget_gallery.zig</text>
<text x="128" y="386" text-anchor="start" font-family="monospace" font-size="15" font-weight="700" fill="#86efac">src/</text>
<text x="150" y="428" text-anchor="start" font-family="monospace" font-size="15" font-weight="560" fill="#dbe7f3">widget/</text>
<text x="150" y="470" text-anchor="start" font-family="monospace" font-size="15" font-weight="560" fill="#dbe7f3">render/</text>
<rect x="444" y="112" width="642" height="466" rx="12" fill="#0b111c" stroke="#233047" stroke-width="1"/>
<rect x="444" y="112" width="642" height="36" rx="12" fill="#111a2a"/>
<rect x="444" y="137" width="642" height="11" fill="#111a2a"/>
<rect x="460" y="125" width="8" height="8" rx="2" fill="#86efac"/>
<text x="478" y="136" text-anchor="start" font-family="monospace" font-size="14" font-weight="700" fill="#e8f0fb">Directory View</text>
<rect x="472" y="164" width="586" height="36" rx="8" fill="#172033"/>
<text x="494" y="188" text-anchor="start" font-family="monospace" font-size="13" font-weight="800" fill="#86efac">NAME</text>
<text x="756" y="188" text-anchor="start" font-family="monospace" font-size="13" font-weight="800" fill="#86efac">TYPE</text>
<text x="874" y="188" text-anchor="start" font-family="monospace" font-size="13" font-weight="800" fill="#86efac">SIZE</text>
<text x="986" y="188" text-anchor="start" font-family="monospace" font-size="13" font-weight="800" fill="#86efac">MODIFIED</text>
<rect x="472" y="210" width="586" height="36" rx="8" fill="#0e1726"/>
<text x="494" y="234" text-anchor="start" font-family="monospace" font-size="15" font-weight="650" fill="#e8f0fb">assets/</text>
<text x="756" y="234" text-anchor="start" font-family="monospace" font-size="15" font-weight="550" fill="#8fa3bd">dir</text>
<text x="914" y="234" text-anchor="end" font-family="monospace" font-size="15" font-weight="550" fill="#dbe7f3">-</text>
<text x="986" y="234" text-anchor="start" font-family="monospace" font-size="15" font-weight="550" fill="#8fa3bd">now</text>
<rect x="472" y="258" width="586" height="36" rx="8" fill="#0e1726"/>
<text x="494" y="282" text-anchor="start" font-family="monospace" font-size="15" font-weight="650" fill="#e8f0fb">build.zig</text>
<text x="756" y="282" text-anchor="start" font-family="monospace" font-size="15" font-weight="550" fill="#8fa3bd">file</text>
<text x="914" y="282" text-anchor="end" font-family="monospace" font-size="15" font-weight="550" fill="#dbe7f3">13 KB</text>
<text x="986" y="282" text-anchor="start" font-family="monospace" font-size="15" font-weight="550" fill="#8fa3bd">2m</text>
<rect x="472" y="306" width="586" height="36" rx="8" fill="#102016"/>
<text x="494" y="330" text-anchor="start" font-family="monospace" font-size="15" font-weight="650" fill="#e8f0fb">README.md</text>
<text x="756" y="330" text-anchor="start" font-family="monospace" font-size="15" font-weight="550" fill="#8fa3bd">file</text>
<text x="914" y="330" text-anchor="end" font-family="monospace" font-size="15" font-weight="550" fill="#dbe7f3">29 KB</text>
<text x="986" y="330" text-anchor="start" font-family="monospace" font-size="15" font-weight="550" fill="#8fa3bd">5m</text>
<rect x="472" y="354" width="586" height="36" rx="8" fill="#0e1726"/>
<text x="494" y="378" text-anchor="start" font-family="monospace" font-size="15" font-weight="650" fill="#e8f0fb">scripts/</text>
<text x="756" y="378" text-anchor="start" font-family="monospace" font-size="15" font-weight="550" fill="#8fa3bd">dir</text>
<text x="914" y="378" text-anchor="end" font-family="monospace" font-size="15" font-weight="550" fill="#dbe7f3">-</text>
<text x="986" y="378" text-anchor="start" font-family="monospace" font-size="15" font-weight="550" fill="#8fa3bd">8m</text>
<rect x="472" y="402" width="586" height="36" rx="8" fill="#0e1726"/>
<text x="494" y="426" text-anchor="start" font-family="monospace" font-size="15" font-weight="650" fill="#e8f0fb">zig-out/</text>
<text x="756" y="426" text-anchor="start" font-family="monospace" font-size="15" font-weight="550" fill="#8fa3bd">dir</text>
<text x="914" y="426" text-anchor="end" font-family="monospace" font-size="15" font-weight="550" fill="#dbe7f3">-</text>
<text x="986" y="426" text-anchor="start" font-family="monospace" font-size="15" font-weight="550" fill="#8fa3bd">local</text>
<rect x="472" y="488" width="586" height="58" rx="10" fill="#101827" stroke="#263244"/>
<text x="494" y="523" text-anchor="start" font-family="monospace" font-size="15" font-weight="700" fill="#86efac">typeahead: rea -&gt; README.md  |  enter opens  |  q quits</text>
</svg>
