<svg xmlns="http://www.w3.org/2000/svg" width="900" height="630">
<rect width="100%" height="100%" fill="#1a1b26"/>
<style>text { font-family: monospace; font-size: 14px; fill: #c0caf5; }</style>
<text x="5" y="18">Your user’s .npmrc file (${HOME}/.npmrc)</text>
<text x="5" y="36">has a `globalconfig` and/or a `prefix` setting, which are incompatible with nvm.</text>
<text x="5" y="54">Run `nvm use --delete-prefix v25.2.1 --silent` to unset it.</text>
<text x="5" y="72">dev@dev ~/clawd/tmp/zit % zig-out/bin/system_monitor</text>
<text x="5" y="90">dev@dev ~/clawd/tmp/zit % zig-out/bin/file_manager</text>
<text x="5" y="108"> home / dev / projects / zit</text>
<text x="5" y="126"> [Open] [New Folder] [Delete] [Refresh]</text>
<text x="5" y="144"></text>
<text x="5" y="162"> ╔════════════════════════════════════════════════════════════════════════════╗</text>
<text x="5" y="180"> ║src                        │dir      │-      │2024-04-02 10:12              ║</text>
<text x="5" y="198"> ║examples                   │dir      │-      │2024-04-01 08:31              ║</text>
<text x="5" y="216"> ║README.md                  │file     │12 KB  │2024-03-30 18:04              ║</text>
<text x="5" y="234"> ║build.zig                  │file     │6 KB   │2024-03-30 17:59              ║</text>
<text x="5" y="252"> ║zig-out                    │dir      │-      │2024-03-29 14:20              ║</text>
<text x="5" y="270"> ║                                                                            ║</text>
<text x="5" y="288"> ║                                                                            ║</text>
<text x="5" y="306"> ║                                                                            ║</text>
<text x="5" y="324"> ║                                                                            ║</text>
<text x="5" y="342"> ║                                                                            ║</text>
<text x="5" y="360"> ║                                                                            ║</text>
<text x="5" y="378"> ║                                                                            ║</text>
<text x="5" y="396"> ║                                                                            ║</text>
<text x="5" y="414"> ╚════════════════════════════════════════════════════════════════════════════╝</text>
<text x="5" y="432"></text>
<text x="5" y="450"></text>
<text x="5" y="468"> 5 items                          file manager             F5 refresh  F10 quit</text>
<text x="5" y="486"></text>
<text x="5" y="504">dev@dev ~/clawd/tmp/zit % qzig-out/bin/htop_clone</text>
<text x="5" y="522">zsh: no such file or directory: qzig-out/bin/htop_clone</text>
<text x="5" y="540">dev@dev ~/clawd/tmp/zit %</text>
<text x="5" y="558"></text>
<text x="5" y="576"></text>
<text x="5" y="594"></text>
<text x="5" y="612"></text>
<text x="5" y="630"></text>
</svg>