<?xml version="1.0" encoding="UTF-8"?>
<svg xmlns="http://www.w3.org/2000/svg" width="1200" height="680" viewBox="0 0 1200 680">
<defs>
<linearGradient id="surface" x1="0" y1="0" x2="1" y2="1">
<stop offset="0" stop-color="#111827"/>
<stop offset="1" stop-color="#070b12"/>
</linearGradient>
<filter id="shadow" x="-10%" y="-10%" width="120%" height="125%">
<feDropShadow dx="0" dy="18" stdDeviation="22" flood-color="#000000" flood-opacity="0.38"/>
</filter>
</defs>
<rect width="1200" height="680" fill="#05070b"/>
<rect x="42" y="38" width="1116" height="604" rx="22" fill="url(#surface)" stroke="#263244" stroke-width="1.5" filter="url(#shadow)"/>
<rect x="42" y="38" width="1116" height="46" rx="22" fill="#f59e0b"/>
<rect x="42" y="66" width="1116" height="18" fill="#f59e0b"/>
<circle cx="72" cy="61" r="6" fill="#07111c" opacity="0.72"/>
<circle cx="94" cy="61" r="6" fill="#07111c" opacity="0.52"/>
<circle cx="116" cy="61" r="6" fill="#07111c" opacity="0.36"/>
<text x="150" y="66" font-family="monospace" font-size="18" font-weight="700" fill="#061018">zit widget showcase</text>
<text x="1128" y="66" text-anchor="end" font-family="monospace" font-size="13" fill="#061018" opacity="0.76">featureful without visual noise</text>
<rect x="72" y="112" width="308" height="222" rx="12" fill="#0b111c" stroke="#233047" stroke-width="1"/>
<rect x="72" y="112" width="308" height="36" rx="12" fill="#111a2a"/>
<rect x="72" y="137" width="308" height="11" fill="#111a2a"/>
<rect x="88" y="125" width="8" height="8" rx="2" fill="#f59e0b"/>
<text x="106" y="136" text-anchor="start" font-family="monospace" font-size="14" font-weight="700" fill="#e8f0fb">Controls</text>
<rect x="104" y="176" width="116" height="42" rx="9" fill="#f59e0b"/>
<text x="162" y="203" text-anchor="middle" font-family="monospace" font-size="15" font-weight="800" fill="#111827">Deploy</text>
<text x="104" y="256" text-anchor="start" font-family="monospace" font-size="15" font-weight="650" fill="#e8f0fb">[x] accessibility</text>
<text x="104" y="284" text-anchor="start" font-family="monospace" font-size="13" font-weight="600" fill="#8fa3bd">progress 72%</text>
<rect x="104" y="292" width="220" height="12" rx="6" fill="#1a2435"/>
<rect x="104" y="292" width="158" height="12" rx="6" fill="#f59e0b"/>
<rect x="414" y="112" width="308" height="222" rx="12" fill="#0b111c" stroke="#233047" stroke-width="1"/>
<rect x="414" y="112" width="308" height="36" rx="12" fill="#111a2a"/>
<rect x="414" y="137" width="308" height="11" fill="#111a2a"/>
<rect x="430" y="125" width="8" height="8" rx="2" fill="#7dd3fc"/>
<text x="448" y="136" text-anchor="start" font-family="monospace" font-size="14" font-weight="700" fill="#e8f0fb">Menus + Toasts</text>
<rect x="446" y="172" width="236" height="38" rx="8" fill="#0f2033" stroke="#24435f"/>
<text x="466" y="197" text-anchor="start" font-family="monospace" font-size="14" font-weight="700" fill="#7dd3fc">File  Edit  View  Help</text>
<rect x="446" y="240" width="236" height="54" rx="10" fill="#132033" stroke="#315275"/>
<text x="466" y="265" text-anchor="start" font-family="monospace" font-size="15" font-weight="800" fill="#e8f0fb">Build complete</text>
<text x="466" y="286" text-anchor="start" font-family="monospace" font-size="13" font-weight="600" fill="#8fa3bd">12 widgets rendered</text>
<rect x="756" y="112" width="330" height="222" rx="12" fill="#0b111c" stroke="#233047" stroke-width="1"/>
<rect x="756" y="112" width="330" height="36" rx="12" fill="#111a2a"/>
<rect x="756" y="137" width="330" height="11" fill="#111a2a"/>
<rect x="772" y="125" width="8" height="8" rx="2" fill="#86efac"/>
<text x="790" y="136" text-anchor="start" font-family="monospace" font-size="14" font-weight="700" fill="#e8f0fb">Data Widgets</text>
<text x="788" y="182" text-anchor="start" font-family="monospace" font-size="13" font-weight="600" fill="#8fa3bd">Sparkline</text>
<path d="M788 246 L820 224 L852 236 L884 198 L916 214 L948 182 L980 202 L1012 172 L1044 188" fill="none" stroke="#86efac" stroke-width="4" stroke-linecap="round"/>
<text x="788" y="286" text-anchor="start" font-family="monospace" font-size="15" font-weight="700" fill="#e8f0fb">Table row focus: 03 / 24</text>
<rect x="72" y="370" width="1014" height="208" rx="12" fill="#0b111c" stroke="#233047" stroke-width="1"/>
<rect x="72" y="370" width="1014" height="36" rx="12" fill="#111a2a"/>
<rect x="72" y="395" width="1014" height="11" fill="#111a2a"/>
<rect x="88" y="383" width="8" height="8" rx="2" fill="#c4b5fd"/>
<text x="106" y="394" text-anchor="start" font-family="monospace" font-size="14" font-weight="700" fill="#e8f0fb">Composed Application Frame</text>
<rect x="104" y="430" width="950" height="82" rx="12" fill="#0e1726" stroke="#263244"/>
<rect x="134" y="456" width="126" height="30" rx="15" fill="#c4b5fd" opacity="0.16" stroke="#c4b5fd"/>
<text x="197" y="477" text-anchor="middle" font-family="monospace" font-size="14" font-weight="800" fill="#c4b5fd">layout</text>
<rect x="304" y="456" width="126" height="30" rx="15" fill="#7dd3fc" opacity="0.16" stroke="#7dd3fc"/>
<text x="367" y="477" text-anchor="middle" font-family="monospace" font-size="14" font-weight="800" fill="#7dd3fc">input</text>
<rect x="474" y="456" width="126" height="30" rx="15" fill="#86efac" opacity="0.16" stroke="#86efac"/>
<text x="537" y="477" text-anchor="middle" font-family="monospace" font-size="14" font-weight="800" fill="#86efac">render</text>
<rect x="644" y="456" width="126" height="30" rx="15" fill="#f59e0b" opacity="0.16" stroke="#f59e0b"/>
<text x="707" y="477" text-anchor="middle" font-family="monospace" font-size="14" font-weight="800" fill="#f59e0b">themes</text>
<rect x="814" y="456" width="126" height="30" rx="15" fill="#fda4af" opacity="0.16" stroke="#fda4af"/>
<text x="877" y="477" text-anchor="middle" font-family="monospace" font-size="14" font-weight="800" fill="#fda4af">a11y</text>
<text x="104" y="548" text-anchor="start" font-family="monospace" font-size="15" font-weight="650" fill="#8fa3bd">One allocator-aware widget system, deterministic visual checks, q-to-quit examples.</text>
</svg>
