<?xml version="1.0" encoding="UTF-8"?>
<svg xmlns="http://www.w3.org/2000/svg" width="1010" height="468" viewBox="0 0 1010 468">
  <rect x="0" y="0" width="1010" height="468" fill="#ef9b57" rx="8" ry="8"/>
  <rect x="10" y="42" width="990" height="16" fill="#0e0e18"/>
  <rect x="10" y="58" width="18" height="16" fill="#0e0e18"/>
  <rect x="28" y="58" width="306" height="16" fill="#181a24"/>
  <rect x="334" y="58" width="9" height="16" fill="#0e0e18"/>
  <rect x="343" y="58" width="306" height="16" fill="#181a24"/>
  <rect x="649" y="58" width="9" height="16" fill="#0e0e18"/>
  <rect x="658" y="58" width="306" height="16" fill="#181a24"/>
  <rect x="964" y="58" width="36" height="16" fill="#0e0e18"/>
  <rect x="10" y="74" width="18" height="16" fill="#0e0e18"/>
  <rect x="28" y="74" width="306" height="16" fill="#181a24"/>
  <rect x="334" y="74" width="9" height="16" fill="#0e0e18"/>
  <rect x="343" y="74" width="306" height="16" fill="#181a24"/>
  <rect x="649" y="74" width="9" height="16" fill="#0e0e18"/>
  <rect x="658" y="74" width="306" height="16" fill="#181a24"/>
  <rect x="964" y="74" width="36" height="16" fill="#0e0e18"/>
  <rect x="10" y="90" width="18" height="16" fill="#0e0e18"/>
  <rect x="28" y="90" width="306" height="16" fill="#181a24"/>
  <rect x="334" y="90" width="9" height="16" fill="#0e0e18"/>
  <rect x="343" y="90" width="306" height="16" fill="#181a24"/>
  <rect x="649" y="90" width="9" height="16" fill="#0e0e18"/>
  <rect x="658" y="90" width="306" height="16" fill="#181a24"/>
  <rect x="964" y="90" width="36" height="16" fill="#0e0e18"/>
  <rect x="10" y="106" width="18" height="16" fill="#0e0e18"/>
  <rect x="28" y="106" width="306" height="16" fill="#181a24"/>
  <rect x="334" y="106" width="9" height="16" fill="#0e0e18"/>
  <rect x="343" y="106" width="306" height="16" fill="#181a24"/>
  <rect x="649" y="106" width="9" height="16" fill="#0e0e18"/>
  <rect x="658" y="106" width="306" height="16" fill="#181a24"/>
  <rect x="964" y="106" width="36" height="16" fill="#0e0e18"/>
  <rect x="10" y="122" width="18" height="16" fill="#0e0e18"/>
  <rect x="28" y="122" width="306" height="16" fill="#181a24"/>
  <rect x="334" y="122" width="9" height="16" fill="#0e0e18"/>
  <rect x="343" y="122" width="306" height="16" fill="#181a24"/>
  <rect x="649" y="122" width="9" height="16" fill="#0e0e18"/>
  <rect x="658" y="122" width="306" height="16" fill="#181a24"/>
  <rect x="964" y="122" width="36" height="16" fill="#0e0e18"/>
  <rect x="10" y="138" width="18" height="16" fill="#0e0e18"/>
  <rect x="28" y="138" width="306" height="16" fill="#181a24"/>
  <rect x="334" y="138" width="9" height="16" fill="#0e0e18"/>
  <rect x="343" y="138" width="306" height="16" fill="#181a24"/>
  <rect x="649" y="138" width="9" height="16" fill="#0e0e18"/>
  <rect x="658" y="138" width="306" height="16" fill="#181a24"/>
  <rect x="964" y="138" width="36" height="16" fill="#0e0e18"/>
  <rect x="10" y="154" width="18" height="16" fill="#0e0e18"/>
  <rect x="28" y="154" width="306" height="16" fill="#181a24"/>
  <rect x="334" y="154" width="9" height="16" fill="#0e0e18"/>
  <rect x="343" y="154" width="306" height="16" fill="#181a24"/>
  <rect x="649" y="154" width="9" height="16" fill="#0e0e18"/>
  <rect x="658" y="154" width="306" height="16" fill="#181a24"/>
  <rect x="964" y="154" width="36" height="16" fill="#0e0e18"/>
  <rect x="10" y="170" width="18" height="16" fill="#0e0e18"/>
  <rect x="28" y="170" width="306" height="16" fill="#181a24"/>
  <rect x="334" y="170" width="9" height="16" fill="#0e0e18"/>
  <rect x="343" y="170" width="306" height="16" fill="#181a24"/>
  <rect x="649" y="170" width="9" height="16" fill="#0e0e18"/>
  <rect x="658" y="170" width="306" height="16" fill="#181a24"/>
  <rect x="964" y="170" width="36" height="16" fill="#0e0e18"/>
  <rect x="10" y="186" width="18" height="16" fill="#0e0e18"/>
  <rect x="28" y="186" width="306" height="16" fill="#181a24"/>
  <rect x="334" y="186" width="9" height="16" fill="#0e0e18"/>
  <rect x="343" y="186" width="306" height="16" fill="#181a24"/>
  <rect x="649" y="186" width="9" height="16" fill="#0e0e18"/>
  <rect x="658" y="186" width="306" height="16" fill="#181a24"/>
  <rect x="964" y="186" width="36" height="16" fill="#0e0e18"/>
  <rect x="10" y="202" width="18" height="16" fill="#0e0e18"/>
  <rect x="28" y="202" width="306" height="16" fill="#181a24"/>
  <rect x="334" y="202" width="9" height="16" fill="#0e0e18"/>
  <rect x="343" y="202" width="306" height="16" fill="#181a24"/>
  <rect x="649" y="202" width="9" height="16" fill="#0e0e18"/>
  <rect x="658" y="202" width="306" height="16" fill="#181a24"/>
  <rect x="964" y="202" width="36" height="16" fill="#0e0e18"/>
  <rect x="10" y="218" width="18" height="16" fill="#0e0e18"/>
  <rect x="28" y="218" width="306" height="16" fill="#181a24"/>
  <rect x="334" y="218" width="9" height="16" fill="#0e0e18"/>
  <rect x="343" y="218" width="306" height="16" fill="#181a24"/>
  <rect x="649" y="218" width="9" height="16" fill="#0e0e18"/>
  <rect x="658" y="218" width="306" height="16" fill="#181a24"/>
  <rect x="964" y="218" width="36" height="16" fill="#0e0e18"/>
  <rect x="10" y="234" width="18" height="16" fill="#0e0e18"/>
  <rect x="28" y="234" width="306" height="16" fill="#181a24"/>
  <rect x="334" y="234" width="9" height="16" fill="#0e0e18"/>
  <rect x="343" y="234" width="306" height="16" fill="#181a24"/>
  <rect x="649" y="234" width="9" height="16" fill="#0e0e18"/>
  <rect x="658" y="234" width="306" height="16" fill="#181a24"/>
  <rect x="964" y="234" width="36" height="16" fill="#0e0e18"/>
  <rect x="10" y="250" width="18" height="16" fill="#0e0e18"/>
  <rect x="28" y="250" width="306" height="16" fill="#181a24"/>
  <rect x="334" y="250" width="9" height="16" fill="#0e0e18"/>
  <rect x="343" y="250" width="306" height="16" fill="#181a24"/>
  <rect x="649" y="250" width="9" height="16" fill="#0e0e18"/>
  <rect x="658" y="250" width="306" height="16" fill="#181a24"/>
  <rect x="964" y="250" width="36" height="16" fill="#0e0e18"/>
  <rect x="10" y="266" width="18" height="16" fill="#0e0e18"/>
  <rect x="28" y="266" width="306" height="16" fill="#181a24"/>
  <rect x="334" y="266" width="9" height="16" fill="#0e0e18"/>
  <rect x="343" y="266" width="306" height="16" fill="#181a24"/>
  <rect x="649" y="266" width="9" height="16" fill="#0e0e18"/>
  <rect x="658" y="266" width="306" height="16" fill="#181a24"/>
  <rect x="964" y="266" width="36" height="16" fill="#0e0e18"/>
  <rect x="10" y="282" width="990" height="16" fill="#0e0e18"/>
  <rect x="10" y="298" width="18" height="16" fill="#0e0e18"/>
  <rect x="28" y="298" width="954" height="16" fill="#181a24"/>
  <rect x="982" y="298" width="18" height="16" fill="#0e0e18"/>
  <rect x="10" y="314" width="18" height="16" fill="#0e0e18"/>
  <rect x="28" y="314" width="954" height="16" fill="#181a24"/>
  <rect x="982" y="314" width="18" height="16" fill="#0e0e18"/>
  <rect x="10" y="330" width="18" height="16" fill="#0e0e18"/>
  <rect x="28" y="330" width="954" height="16" fill="#181a24"/>
  <rect x="982" y="330" width="18" height="16" fill="#0e0e18"/>
  <rect x="10" y="346" width="18" height="16" fill="#0e0e18"/>
  <rect x="28" y="346" width="954" height="16" fill="#181a24"/>
  <rect x="982" y="346" width="18" height="16" fill="#0e0e18"/>
  <rect x="10" y="362" width="18" height="16" fill="#0e0e18"/>
  <rect x="28" y="362" width="954" height="16" fill="#181a24"/>
  <rect x="982" y="362" width="18" height="16" fill="#0e0e18"/>
  <rect x="10" y="378" width="18" height="16" fill="#0e0e18"/>
  <rect x="28" y="378" width="954" height="16" fill="#181a24"/>
  <rect x="982" y="378" width="18" height="16" fill="#0e0e18"/>
  <rect x="10" y="394" width="18" height="16" fill="#0e0e18"/>
  <rect x="28" y="394" width="954" height="16" fill="#181a24"/>
  <rect x="982" y="394" width="18" height="16" fill="#0e0e18"/>
  <rect x="10" y="410" width="990" height="16" fill="#0e0e18"/>
  <rect x="10" y="426" width="36" height="16" fill="#0e0e18"/>
  <rect x="739" y="426" width="261" height="16" fill="#0e0e18"/>
  <rect x="10" y="442" width="990" height="16" fill="#0e0e18"/>
  <text x="10" y="10" xml:space="preserve" font-family="JetBrains Mono, 'Fira Code', SFMono-Regular, Consolas, Menlo, monospace" font-size="13" dominant-baseline="hanging">
    <tspan fill="#0e0e18">  </tspan>
    <tspan fill="#000000" font-weight="700">Showcase — mixed widgets</tspan>
    <tspan fill="#0e0e18">                                                                                    </tspan>
  </text>
  <text x="10" y="26" xml:space="preserve" font-family="JetBrains Mono, 'Fira Code', SFMono-Regular, Consolas, Menlo, monospace" font-size="13" dominant-baseline="hanging">
    <tspan fill="#0e0e18">                                                                                                              </tspan>
  </text>
  <text x="10" y="42" xml:space="preserve" font-family="JetBrains Mono, 'Fira Code', SFMono-Regular, Consolas, Menlo, monospace" font-size="13" dominant-baseline="hanging">
    <tspan fill="#969aaa">                                                                                                              </tspan>
  </text>
  <text x="10" y="58" xml:space="preserve" font-family="JetBrains Mono, 'Fira Code', SFMono-Regular, Consolas, Menlo, monospace" font-size="13" dominant-baseline="hanging">
    <tspan fill="#969aaa">  +-</tspan>
    <tspan fill="#969aaa" font-weight="700">[ Notifications ]</tspan>
    <tspan fill="#969aaa">--------------+ +-</tspan>
    <tspan fill="#969aaa" font-weight="700">[ Form wizard ]</tspan>
    <tspan fill="#969aaa">----------------+ +-</tspan>
    <tspan fill="#969aaa" font-weight="700">[ Progress dashboard ]</tspan>
    <tspan fill="#969aaa">---------+    </tspan>
  </text>
  <text x="10" y="74" xml:space="preserve" font-family="JetBrains Mono, 'Fira Code', SFMono-Regular, Consolas, Menlo, monospace" font-size="13" dominant-baseline="hanging">
    <tspan fill="#969aaa">  |                                | |                                | |                                |    </tspan>
  </text>
  <text x="10" y="90" xml:space="preserve" font-family="JetBrains Mono, 'Fira Code', SFMono-Regular, Consolas, Menlo, monospace" font-size="13" dominant-baseline="hanging">
    <tspan fill="#969aaa">  | </tspan>
    <tspan fill="#5a8cff" font-weight="700">[ toast ] Deploy complete</tspan>
    <tspan fill="#969aaa">      | | </tspan>
    <tspan fill="#ef9b57" font-weight="700">Step 2/4: Billing</tspan>
    <tspan fill="#969aaa">              | | </tspan>
    <tspan fill="#74cf88" font-weight="700">Gauge      [#####------] 62%</tspan>
    <tspan fill="#969aaa">   |    </tspan>
  </text>
  <text x="10" y="106" xml:space="preserve" font-family="JetBrains Mono, 'Fira Code', SFMono-Regular, Consolas, Menlo, monospace" font-size="13" dominant-baseline="hanging">
    <tspan fill="#969aaa">  | </tspan>
    <tspan fill="#5a8cff">[ banner ] New version available</tspan>
    <tspan fill="#969aaa"> | </tspan>
    <tspan fill="#ef9b57"> - Country: █████     </tspan>
    <tspan fill="#969aaa">         | | </tspan>
    <tspan fill="#74cf88">Sparkline  ▁▂▃▂▅▆▅▃▂▂▃</tspan>
    <tspan fill="#969aaa">         |    </tspan>
  </text>
  <text x="10" y="122" xml:space="preserve" font-family="JetBrains Mono, 'Fira Code', SFMono-Regular, Consolas, Menlo, monospace" font-size="13" dominant-baseline="hanging">
    <tspan fill="#969aaa">  | </tspan>
    <tspan fill="#5a8cff">[ menu ] File  Edit  Help</tspan>
    <tspan fill="#969aaa">      | | </tspan>
    <tspan fill="#ef9b57"> - Card:    ████-4242 </tspan>
    <tspan fill="#969aaa">         | | </tspan>
    <tspan fill="#74cf88">Table      ▶ Focus row 2/5</tspan>
    <tspan fill="#969aaa">     |    </tspan>
  </text>
  <text x="10" y="138" xml:space="preserve" font-family="JetBrains Mono, 'Fira Code', SFMono-Regular, Consolas, Menlo, monospace" font-size="13" dominant-baseline="hanging">
    <tspan fill="#969aaa">  |                                | | </tspan>
    <tspan fill="#ef9b57"> - Save for later [x]</tspan>
    <tspan fill="#969aaa">          | |                                |    </tspan>
  </text>
  <text x="10" y="154" xml:space="preserve" font-family="JetBrains Mono, 'Fira Code', SFMono-Regular, Consolas, Menlo, monospace" font-size="13" dominant-baseline="hanging">
    <tspan fill="#969aaa">  |                                | |                                | |                                |    </tspan>
  </text>
  <text x="10" y="170" xml:space="preserve" font-family="JetBrains Mono, 'Fira Code', SFMono-Regular, Consolas, Menlo, monospace" font-size="13" dominant-baseline="hanging">
    <tspan fill="#969aaa">  |                                | |                                | |                                |    </tspan>
  </text>
  <text x="10" y="186" xml:space="preserve" font-family="JetBrains Mono, 'Fira Code', SFMono-Regular, Consolas, Menlo, monospace" font-size="13" dominant-baseline="hanging">
    <tspan fill="#969aaa">  |                                | |                                | |                                |    </tspan>
  </text>
  <text x="10" y="202" xml:space="preserve" font-family="JetBrains Mono, 'Fira Code', SFMono-Regular, Consolas, Menlo, monospace" font-size="13" dominant-baseline="hanging">
    <tspan fill="#969aaa">  |                                | |                                | |                                |    </tspan>
  </text>
  <text x="10" y="218" xml:space="preserve" font-family="JetBrains Mono, 'Fira Code', SFMono-Regular, Consolas, Menlo, monospace" font-size="13" dominant-baseline="hanging">
    <tspan fill="#969aaa">  |                                | |                                | |                                |    </tspan>
  </text>
  <text x="10" y="234" xml:space="preserve" font-family="JetBrains Mono, 'Fira Code', SFMono-Regular, Consolas, Menlo, monospace" font-size="13" dominant-baseline="hanging">
    <tspan fill="#969aaa">  |                                | |                                | |                                |    </tspan>
  </text>
  <text x="10" y="250" xml:space="preserve" font-family="JetBrains Mono, 'Fira Code', SFMono-Regular, Consolas, Menlo, monospace" font-size="13" dominant-baseline="hanging">
    <tspan fill="#969aaa">  |                                | |                                | |                                |    </tspan>
  </text>
  <text x="10" y="266" xml:space="preserve" font-family="JetBrains Mono, 'Fira Code', SFMono-Regular, Consolas, Menlo, monospace" font-size="13" dominant-baseline="hanging">
    <tspan fill="#969aaa">  +--------------------------------+ +--------------------------------+ +--------------------------------+    </tspan>
  </text>
  <text x="10" y="282" xml:space="preserve" font-family="JetBrains Mono, 'Fira Code', SFMono-Regular, Consolas, Menlo, monospace" font-size="13" dominant-baseline="hanging">
    <tspan fill="#969aaa">                                                                                                              </tspan>
  </text>
  <text x="10" y="298" xml:space="preserve" font-family="JetBrains Mono, 'Fira Code', SFMono-Regular, Consolas, Menlo, monospace" font-size="13" dominant-baseline="hanging">
    <tspan fill="#969aaa">  +-</tspan>
    <tspan fill="#969aaa" font-weight="700">[ Timeline + keyboard shortcuts ]</tspan>
    <tspan fill="#969aaa">----------------------------------------------------------------------+  </tspan>
  </text>
  <text x="10" y="314" xml:space="preserve" font-family="JetBrains Mono, 'Fira Code', SFMono-Regular, Consolas, Menlo, monospace" font-size="13" dominant-baseline="hanging">
    <tspan fill="#969aaa">  |                                                                                                        |  </tspan>
  </text>
  <text x="10" y="330" xml:space="preserve" font-family="JetBrains Mono, 'Fira Code', SFMono-Regular, Consolas, Menlo, monospace" font-size="13" dominant-baseline="hanging">
    <tspan fill="#969aaa">  | </tspan>
    <tspan fill="#5a8cff" font-weight="700">⏺ Recorded events: resize • click • keypress • focus</tspan>
    <tspan fill="#969aaa">                                                   |  </tspan>
  </text>
  <text x="10" y="346" xml:space="preserve" font-family="JetBrains Mono, 'Fira Code', SFMono-Regular, Consolas, Menlo, monospace" font-size="13" dominant-baseline="hanging">
    <tspan fill="#969aaa">  |                                                                                                        |  </tspan>
  </text>
  <text x="10" y="362" xml:space="preserve" font-family="JetBrains Mono, 'Fira Code', SFMono-Regular, Consolas, Menlo, monospace" font-size="13" dominant-baseline="hanging">
    <tspan fill="#969aaa">  | </tspan>
    <tspan fill="#e6e6e6">Shortcuts: [ctrl+p] palette  [t] theme  [q] quit  [f] focus next</tspan>
    <tspan fill="#969aaa">                                       |  </tspan>
  </text>
  <text x="10" y="378" xml:space="preserve" font-family="JetBrains Mono, 'Fira Code', SFMono-Regular, Consolas, Menlo, monospace" font-size="13" dominant-baseline="hanging">
    <tspan fill="#969aaa">  |                                                                                                        |  </tspan>
  </text>
  <text x="10" y="394" xml:space="preserve" font-family="JetBrains Mono, 'Fira Code', SFMono-Regular, Consolas, Menlo, monospace" font-size="13" dominant-baseline="hanging">
    <tspan fill="#969aaa">  +--------------------------------------------------------------------------------------------------------+  </tspan>
  </text>
  <text x="10" y="410" xml:space="preserve" font-family="JetBrains Mono, 'Fira Code', SFMono-Regular, Consolas, Menlo, monospace" font-size="13" dominant-baseline="hanging">
    <tspan fill="#969aaa">                                                                                                              </tspan>
  </text>
  <text x="10" y="426" xml:space="preserve" font-family="JetBrains Mono, 'Fira Code', SFMono-Regular, Consolas, Menlo, monospace" font-size="13" dominant-baseline="hanging">
    <tspan fill="#969aaa">    </tspan>
    <tspan fill="#000000" font-weight="700">Layouts snap to grids; widgets reuse Zit theme tokens for consistent styling.</tspan>
    <tspan fill="#969aaa">                             </tspan>
  </text>
  <text x="10" y="442" xml:space="preserve" font-family="JetBrains Mono, 'Fira Code', SFMono-Regular, Consolas, Menlo, monospace" font-size="13" dominant-baseline="hanging">
    <tspan fill="#969aaa">                                                                                                              </tspan>
  </text>
</svg>
