<?xml version="1.0" encoding="UTF-8"?>
<svg xmlns="http://www.w3.org/2000/svg" width="1010" height="468" viewBox="0 0 1010 468">
  <rect x="0" y="0" width="1010" height="468" fill="#6294ff" rx="8" ry="8"/>
  <rect x="10" y="42" width="990" height="16" fill="#0c0e16"/>
  <rect x="10" y="58" width="9" height="16" fill="#0c0e16"/>
  <rect x="19" y="58" width="477" height="16" fill="#141a26"/>
  <rect x="496" y="58" width="9" height="16" fill="#0c0e16"/>
  <rect x="505" y="58" width="477" height="16" fill="#141a26"/>
  <rect x="982" y="58" width="18" height="16" fill="#0c0e16"/>
  <rect x="10" y="74" width="9" height="16" fill="#0c0e16"/>
  <rect x="19" y="74" width="477" height="16" fill="#141a26"/>
  <rect x="496" y="74" width="9" height="16" fill="#0c0e16"/>
  <rect x="505" y="74" width="477" height="16" fill="#141a26"/>
  <rect x="982" y="74" width="18" height="16" fill="#0c0e16"/>
  <rect x="10" y="90" width="9" height="16" fill="#0c0e16"/>
  <rect x="19" y="90" width="477" height="16" fill="#141a26"/>
  <rect x="496" y="90" width="9" height="16" fill="#0c0e16"/>
  <rect x="505" y="90" width="18" height="16" fill="#141a26"/>
  <rect x="811" y="90" width="171" height="16" fill="#141a26"/>
  <rect x="982" y="90" width="18" height="16" fill="#0c0e16"/>
  <rect x="10" y="106" width="9" height="16" fill="#0c0e16"/>
  <rect x="19" y="106" width="477" height="16" fill="#141a26"/>
  <rect x="496" y="106" width="9" height="16" fill="#0c0e16"/>
  <rect x="505" y="106" width="477" height="16" fill="#141a26"/>
  <rect x="982" y="106" width="18" height="16" fill="#0c0e16"/>
  <rect x="10" y="122" width="9" height="16" fill="#0c0e16"/>
  <rect x="19" y="122" width="477" height="16" fill="#141a26"/>
  <rect x="496" y="122" width="9" height="16" fill="#0c0e16"/>
  <rect x="505" y="122" width="477" height="16" fill="#141a26"/>
  <rect x="982" y="122" width="18" height="16" fill="#0c0e16"/>
  <rect x="10" y="138" width="9" height="16" fill="#0c0e16"/>
  <rect x="19" y="138" width="477" height="16" fill="#141a26"/>
  <rect x="496" y="138" width="9" height="16" fill="#0c0e16"/>
  <rect x="505" y="138" width="477" height="16" fill="#141a26"/>
  <rect x="982" y="138" width="18" height="16" fill="#0c0e16"/>
  <rect x="10" y="154" width="9" height="16" fill="#0c0e16"/>
  <rect x="19" y="154" width="477" height="16" fill="#141a26"/>
  <rect x="496" y="154" width="9" height="16" fill="#0c0e16"/>
  <rect x="505" y="154" width="9" height="16" fill="#141a26"/>
  <rect x="514" y="154" width="459" height="16" fill="#142644"/>
  <rect x="973" y="154" width="9" height="16" fill="#141a26"/>
  <rect x="982" y="154" width="18" height="16" fill="#0c0e16"/>
  <rect x="10" y="170" width="9" height="16" fill="#0c0e16"/>
  <rect x="19" y="170" width="477" height="16" fill="#141a26"/>
  <rect x="496" y="170" width="9" height="16" fill="#0c0e16"/>
  <rect x="505" y="170" width="477" height="16" fill="#141a26"/>
  <rect x="982" y="170" width="18" height="16" fill="#0c0e16"/>
  <rect x="10" y="186" width="9" height="16" fill="#0c0e16"/>
  <rect x="19" y="186" width="477" height="16" fill="#141a26"/>
  <rect x="496" y="186" width="9" height="16" fill="#0c0e16"/>
  <rect x="505" y="186" width="477" height="16" fill="#141a26"/>
  <rect x="982" y="186" width="18" height="16" fill="#0c0e16"/>
  <rect x="10" y="202" width="9" height="16" fill="#0c0e16"/>
  <rect x="19" y="202" width="477" height="16" fill="#141a26"/>
  <rect x="496" y="202" width="9" height="16" fill="#0c0e16"/>
  <rect x="505" y="202" width="477" height="16" fill="#141a26"/>
  <rect x="982" y="202" width="18" height="16" fill="#0c0e16"/>
  <rect x="10" y="218" width="9" height="16" fill="#0c0e16"/>
  <rect x="19" y="218" width="477" height="16" fill="#141a26"/>
  <rect x="496" y="218" width="9" height="16" fill="#0c0e16"/>
  <rect x="505" y="218" width="477" height="16" fill="#141a26"/>
  <rect x="982" y="218" width="18" height="16" fill="#0c0e16"/>
  <rect x="10" y="234" width="9" height="16" fill="#0c0e16"/>
  <rect x="19" y="234" width="477" height="16" fill="#141a26"/>
  <rect x="496" y="234" width="9" height="16" fill="#0c0e16"/>
  <rect x="505" y="234" width="477" height="16" fill="#141a26"/>
  <rect x="982" y="234" width="18" height="16" fill="#0c0e16"/>
  <rect x="10" y="250" width="9" height="16" fill="#0c0e16"/>
  <rect x="19" y="250" width="477" height="16" fill="#141a26"/>
  <rect x="496" y="250" width="9" height="16" fill="#0c0e16"/>
  <rect x="505" y="250" width="477" height="16" fill="#141a26"/>
  <rect x="982" y="250" width="18" height="16" fill="#0c0e16"/>
  <rect x="10" y="266" width="9" height="16" fill="#0c0e16"/>
  <rect x="19" y="266" width="477" height="16" fill="#141a26"/>
  <rect x="496" y="266" width="9" height="16" fill="#0c0e16"/>
  <rect x="505" y="266" width="477" height="16" fill="#141a26"/>
  <rect x="982" y="266" width="18" height="16" fill="#0c0e16"/>
  <rect x="10" y="282" width="9" height="16" fill="#0c0e16"/>
  <rect x="19" y="282" width="477" height="16" fill="#141a26"/>
  <rect x="496" y="282" width="9" height="16" fill="#0c0e16"/>
  <rect x="505" y="282" width="477" height="16" fill="#141a26"/>
  <rect x="982" y="282" width="18" height="16" fill="#0c0e16"/>
  <rect x="10" y="298" width="9" height="16" fill="#0c0e16"/>
  <rect x="19" y="298" width="477" height="16" fill="#141a26"/>
  <rect x="496" y="298" width="9" height="16" fill="#0c0e16"/>
  <rect x="505" y="298" width="477" height="16" fill="#141a26"/>
  <rect x="982" y="298" width="18" height="16" fill="#0c0e16"/>
  <rect x="10" y="314" width="9" height="16" fill="#0c0e16"/>
  <rect x="19" y="314" width="477" height="16" fill="#141a26"/>
  <rect x="496" y="314" width="9" height="16" fill="#0c0e16"/>
  <rect x="505" y="314" width="477" height="16" fill="#141a26"/>
  <rect x="982" y="314" width="18" height="16" fill="#0c0e16"/>
  <rect x="10" y="330" width="9" height="16" fill="#0c0e16"/>
  <rect x="19" y="330" width="477" height="16" fill="#141a26"/>
  <rect x="496" y="330" width="9" height="16" fill="#0c0e16"/>
  <rect x="505" y="330" width="477" height="16" fill="#141a26"/>
  <rect x="982" y="330" width="18" height="16" fill="#0c0e16"/>
  <rect x="10" y="346" width="9" height="16" fill="#0c0e16"/>
  <rect x="19" y="346" width="477" height="16" fill="#141a26"/>
  <rect x="496" y="346" width="9" height="16" fill="#0c0e16"/>
  <rect x="505" y="346" width="477" height="16" fill="#141a26"/>
  <rect x="982" y="346" width="18" height="16" fill="#0c0e16"/>
  <rect x="10" y="362" width="9" height="16" fill="#0c0e16"/>
  <rect x="19" y="362" width="477" height="16" fill="#141a26"/>
  <rect x="496" y="362" width="9" height="16" fill="#0c0e16"/>
  <rect x="505" y="362" width="477" height="16" fill="#141a26"/>
  <rect x="982" y="362" width="18" height="16" fill="#0c0e16"/>
  <rect x="10" y="378" width="9" height="16" fill="#0c0e16"/>
  <rect x="19" y="378" width="477" height="16" fill="#141a26"/>
  <rect x="496" y="378" width="9" height="16" fill="#0c0e16"/>
  <rect x="505" y="378" width="477" height="16" fill="#141a26"/>
  <rect x="982" y="378" width="18" height="16" fill="#0c0e16"/>
  <rect x="10" y="394" width="9" height="16" fill="#0c0e16"/>
  <rect x="19" y="394" width="477" height="16" fill="#141a26"/>
  <rect x="496" y="394" width="9" height="16" fill="#0c0e16"/>
  <rect x="505" y="394" width="477" height="16" fill="#141a26"/>
  <rect x="982" y="394" width="18" height="16" fill="#0c0e16"/>
  <rect x="10" y="410" width="990" height="16" fill="#0c0e16"/>
  <rect x="10" y="426" width="18" height="16" fill="#0c0e16"/>
  <rect x="640" y="426" width="360" height="16" fill="#0c0e16"/>
  <rect x="10" y="442" width="990" height="16" fill="#0c0e16"/>
  <text x="10" y="10" xml:space="preserve" font-family="JetBrains Mono, 'Fira Code', SFMono-Regular, Consolas, Menlo, monospace" font-size="13" dominant-baseline="hanging">
    <tspan fill="#0c0e16">  </tspan>
    <tspan fill="#ffffff" font-weight="700">System monitor — Midnight theme</tspan>
    <tspan fill="#0c0e16">                                             </tspan>
    <tspan fill="#e6e6e6">cpu/mem gauges + process table</tspan>
    <tspan fill="#0c0e16">  </tspan>
  </text>
  <text x="10" y="26" xml:space="preserve" font-family="JetBrains Mono, 'Fira Code', SFMono-Regular, Consolas, Menlo, monospace" font-size="13" dominant-baseline="hanging">
    <tspan fill="#0c0e16">                                                                                                              </tspan>
  </text>
  <text x="10" y="42" xml:space="preserve" font-family="JetBrains Mono, 'Fira Code', SFMono-Regular, Consolas, Menlo, monospace" font-size="13" dominant-baseline="hanging">
    <tspan fill="#7d8796">                                                                                                              </tspan>
  </text>
  <text x="10" y="58" xml:space="preserve" font-family="JetBrains Mono, 'Fira Code', SFMono-Regular, Consolas, Menlo, monospace" font-size="13" dominant-baseline="hanging">
    <tspan fill="#7d8796"> +-</tspan>
    <tspan fill="#7d8796" font-weight="700">[ CPU / Memory ]</tspan>
    <tspan fill="#7d8796">----------------------------------+ +-</tspan>
    <tspan fill="#7d8796" font-weight="700">[ Processes ]</tspan>
    <tspan fill="#7d8796">-------------------------------------+  </tspan>
  </text>
  <text x="10" y="74" xml:space="preserve" font-family="JetBrains Mono, 'Fira Code', SFMono-Regular, Consolas, Menlo, monospace" font-size="13" dominant-baseline="hanging">
    <tspan fill="#7d8796"> |                                                   | |                                                   |  </tspan>
  </text>
  <text x="10" y="90" xml:space="preserve" font-family="JetBrains Mono, 'Fira Code', SFMono-Regular, Consolas, Menlo, monospace" font-size="13" dominant-baseline="hanging">
    <tspan fill="#7d8796"> |  </tspan>
    <tspan fill="#6294ff" font-weight="700">CPU 72%</tspan>
    <tspan fill="#7d8796">                                          | | </tspan>
    <tspan fill="#0c0e16" font-weight="700">Process           CPU     Memory</tspan>
    <tspan fill="#7d8796">                  |  </tspan>
  </text>
  <text x="10" y="106" xml:space="preserve" font-family="JetBrains Mono, 'Fira Code', SFMono-Regular, Consolas, Menlo, monospace" font-size="13" dominant-baseline="hanging">
    <tspan fill="#7d8796"> |  </tspan>
    <tspan fill="#28c29a" font-weight="700">[###################-----]</tspan>
    <tspan fill="#7d8796">                       | |                                                   |  </tspan>
  </text>
  <text x="10" y="122" xml:space="preserve" font-family="JetBrains Mono, 'Fira Code', SFMono-Regular, Consolas, Menlo, monospace" font-size="13" dominant-baseline="hanging">
    <tspan fill="#7d8796"> |                                                   | | </tspan>
    <tspan fill="#e6e6e6">zit-demo        42.4%    142 MB</tspan>
    <tspan fill="#7d8796">                   |  </tspan>
  </text>
  <text x="10" y="138" xml:space="preserve" font-family="JetBrains Mono, 'Fira Code', SFMono-Regular, Consolas, Menlo, monospace" font-size="13" dominant-baseline="hanging">
    <tspan fill="#7d8796"> |  </tspan>
    <tspan fill="#6294ff" font-weight="700">Memory 63%</tspan>
    <tspan fill="#7d8796">                                       | |                                                   |  </tspan>
  </text>
  <text x="10" y="154" xml:space="preserve" font-family="JetBrains Mono, 'Fira Code', SFMono-Regular, Consolas, Menlo, monospace" font-size="13" dominant-baseline="hanging">
    <tspan fill="#7d8796"> |  </tspan>
    <tspan fill="#ebc96d" font-weight="700">[##################------]</tspan>
    <tspan fill="#7d8796">                       | |</tspan>
    <tspan fill="#0c0e16"> </tspan>
    <tspan fill="#ffffff" font-weight="700">renderer        37.2%    120 MB</tspan>
    <tspan fill="#0c0e16">                   </tspan>
    <tspan fill="#7d8796">|  </tspan>
  </text>
  <text x="10" y="170" xml:space="preserve" font-family="JetBrains Mono, 'Fira Code', SFMono-Regular, Consolas, Menlo, monospace" font-size="13" dominant-baseline="hanging">
    <tspan fill="#7d8796"> |                                                   | |                                                   |  </tspan>
  </text>
  <text x="10" y="186" xml:space="preserve" font-family="JetBrains Mono, 'Fira Code', SFMono-Regular, Consolas, Menlo, monospace" font-size="13" dominant-baseline="hanging">
    <tspan fill="#7d8796"> |  Network throughput                               | | </tspan>
    <tspan fill="#e6e6e6">metricsd        18.6%     94 MB</tspan>
    <tspan fill="#7d8796">                   |  </tspan>
  </text>
  <text x="10" y="202" xml:space="preserve" font-family="JetBrains Mono, 'Fira Code', SFMono-Regular, Consolas, Menlo, monospace" font-size="13" dominant-baseline="hanging">
    <tspan fill="#7d8796"> |  </tspan>
    <tspan fill="#6294ff" font-weight="700">__/^^\__/\_/\__/\_/^^--__</tspan>
    <tspan fill="#7d8796">                        | |                                                   |  </tspan>
  </text>
  <text x="10" y="218" xml:space="preserve" font-family="JetBrains Mono, 'Fira Code', SFMono-Regular, Consolas, Menlo, monospace" font-size="13" dominant-baseline="hanging">
    <tspan fill="#7d8796"> |                                                   | | </tspan>
    <tspan fill="#e6e6e6">net-tap         12.1%     88 MB</tspan>
    <tspan fill="#7d8796">                   |  </tspan>
  </text>
  <text x="10" y="234" xml:space="preserve" font-family="JetBrains Mono, 'Fira Code', SFMono-Regular, Consolas, Menlo, monospace" font-size="13" dominant-baseline="hanging">
    <tspan fill="#7d8796"> |                                                   | |                                                   |  </tspan>
  </text>
  <text x="10" y="250" xml:space="preserve" font-family="JetBrains Mono, 'Fira Code', SFMono-Regular, Consolas, Menlo, monospace" font-size="13" dominant-baseline="hanging">
    <tspan fill="#7d8796"> |                                                   | | </tspan>
    <tspan fill="#e6e6e6">backup           7.4%     73 MB</tspan>
    <tspan fill="#7d8796">                   |  </tspan>
  </text>
  <text x="10" y="266" xml:space="preserve" font-family="JetBrains Mono, 'Fira Code', SFMono-Regular, Consolas, Menlo, monospace" font-size="13" dominant-baseline="hanging">
    <tspan fill="#7d8796"> |                                                   | |                                                   |  </tspan>
  </text>
  <text x="10" y="282" xml:space="preserve" font-family="JetBrains Mono, 'Fira Code', SFMono-Regular, Consolas, Menlo, monospace" font-size="13" dominant-baseline="hanging">
    <tspan fill="#7d8796"> |                                                   | |                                                   |  </tspan>
  </text>
  <text x="10" y="298" xml:space="preserve" font-family="JetBrains Mono, 'Fira Code', SFMono-Regular, Consolas, Menlo, monospace" font-size="13" dominant-baseline="hanging">
    <tspan fill="#7d8796"> |                                                   | |                                                   |  </tspan>
  </text>
  <text x="10" y="314" xml:space="preserve" font-family="JetBrains Mono, 'Fira Code', SFMono-Regular, Consolas, Menlo, monospace" font-size="13" dominant-baseline="hanging">
    <tspan fill="#7d8796"> |                                                   | |                                                   |  </tspan>
  </text>
  <text x="10" y="330" xml:space="preserve" font-family="JetBrains Mono, 'Fira Code', SFMono-Regular, Consolas, Menlo, monospace" font-size="13" dominant-baseline="hanging">
    <tspan fill="#7d8796"> |                                                   | |                                                   |  </tspan>
  </text>
  <text x="10" y="346" xml:space="preserve" font-family="JetBrains Mono, 'Fira Code', SFMono-Regular, Consolas, Menlo, monospace" font-size="13" dominant-baseline="hanging">
    <tspan fill="#7d8796"> |                                                   | |                                                   |  </tspan>
  </text>
  <text x="10" y="362" xml:space="preserve" font-family="JetBrains Mono, 'Fira Code', SFMono-Regular, Consolas, Menlo, monospace" font-size="13" dominant-baseline="hanging">
    <tspan fill="#7d8796"> |                                                   | |                                                   |  </tspan>
  </text>
  <text x="10" y="378" xml:space="preserve" font-family="JetBrains Mono, 'Fira Code', SFMono-Regular, Consolas, Menlo, monospace" font-size="13" dominant-baseline="hanging">
    <tspan fill="#7d8796"> |                                                   | |                                                   |  </tspan>
  </text>
  <text x="10" y="394" xml:space="preserve" font-family="JetBrains Mono, 'Fira Code', SFMono-Regular, Consolas, Menlo, monospace" font-size="13" dominant-baseline="hanging">
    <tspan fill="#7d8796"> +---------------------------------------------------+ +---------------------------------------------------+  </tspan>
  </text>
  <text x="10" y="410" xml:space="preserve" font-family="JetBrains Mono, 'Fira Code', SFMono-Regular, Consolas, Menlo, monospace" font-size="13" dominant-baseline="hanging">
    <tspan fill="#7d8796">                                                                                                              </tspan>
  </text>
  <text x="10" y="426" xml:space="preserve" font-family="JetBrains Mono, 'Fira Code', SFMono-Regular, Consolas, Menlo, monospace" font-size="13" dominant-baseline="hanging">
    <tspan fill="#7d8796">  </tspan>
    <tspan fill="#0c0e16" font-weight="700">Theme: Midnight | q quit, p pause, t toggle themes | focus: renderer</tspan>
    <tspan fill="#7d8796">                                        </tspan>
  </text>
  <text x="10" y="442" xml:space="preserve" font-family="JetBrains Mono, 'Fira Code', SFMono-Regular, Consolas, Menlo, monospace" font-size="13" dominant-baseline="hanging">
    <tspan fill="#7d8796">                                                                                                              </tspan>
  </text>
</svg>
