<?xml version="1.0" encoding="UTF-8"?>
<svg xmlns="http://www.w3.org/2000/svg" width="1200" height="680" viewBox="0 0 1200 680">
<defs>
<linearGradient id="surface" x1="0" y1="0" x2="1" y2="1">
<stop offset="0" stop-color="#111827"/>
<stop offset="1" stop-color="#070b12"/>
</linearGradient>
<filter id="shadow" x="-10%" y="-10%" width="120%" height="125%">
<feDropShadow dx="0" dy="18" stdDeviation="22" flood-color="#000000" flood-opacity="0.38"/>
</filter>
</defs>
<rect width="1200" height="680" fill="#05070b"/>
<rect x="42" y="38" width="1116" height="604" rx="22" fill="url(#surface)" stroke="#263244" stroke-width="1.5" filter="url(#shadow)"/>
<rect x="42" y="38" width="1116" height="46" rx="22" fill="#7dd3fc"/>
<rect x="42" y="66" width="1116" height="18" fill="#7dd3fc"/>
<circle cx="72" cy="61" r="6" fill="#07111c" opacity="0.72"/>
<circle cx="94" cy="61" r="6" fill="#07111c" opacity="0.52"/>
<circle cx="116" cy="61" r="6" fill="#07111c" opacity="0.36"/>
<text x="150" y="66" font-family="monospace" font-size="18" font-weight="700" fill="#061018">zit system monitor</text>
<text x="1128" y="66" text-anchor="end" font-family="monospace" font-size="13" fill="#061018" opacity="0.76">live widgets / stable frames</text>
<rect x="72" y="112" width="404" height="240" rx="12" fill="#0b111c" stroke="#233047" stroke-width="1"/>
<rect x="72" y="112" width="404" height="36" rx="12" fill="#111a2a"/>
<rect x="72" y="137" width="404" height="11" fill="#111a2a"/>
<rect x="88" y="125" width="8" height="8" rx="2" fill="#7dd3fc"/>
<text x="106" y="136" text-anchor="start" font-family="monospace" font-size="14" font-weight="700" fill="#e8f0fb">Service Health</text>
<text x="104" y="168" text-anchor="start" font-family="monospace" font-size="13" font-weight="600" fill="#8fa3bd">CPU     78%</text>
<rect x="104" y="176" width="320" height="12" rx="6" fill="#1a2435"/>
<rect x="104" y="176" width="249" height="12" rx="6" fill="#34d399"/>
<text x="104" y="222" text-anchor="start" font-family="monospace" font-size="13" font-weight="600" fill="#8fa3bd">Memory  62%</text>
<rect x="104" y="230" width="320" height="12" rx="6" fill="#1a2435"/>
<rect x="104" y="230" width="198" height="12" rx="6" fill="#fbbf24"/>
<text x="104" y="276" text-anchor="start" font-family="monospace" font-size="13" font-weight="600" fill="#8fa3bd">Network 36%</text>
<rect x="104" y="284" width="320" height="12" rx="6" fill="#1a2435"/>
<rect x="104" y="284" width="115" height="12" rx="6" fill="#7dd3fc"/>
<rect x="508" y="112" width="578" height="240" rx="12" fill="#0b111c" stroke="#233047" stroke-width="1"/>
<rect x="508" y="112" width="578" height="36" rx="12" fill="#111a2a"/>
<rect x="508" y="137" width="578" height="11" fill="#111a2a"/>
<rect x="524" y="125" width="8" height="8" rx="2" fill="#7dd3fc"/>
<text x="542" y="136" text-anchor="start" font-family="monospace" font-size="14" font-weight="700" fill="#e8f0fb">Process Table</text>
<rect x="532" y="164" width="530" height="34" rx="7" fill="#132033"/>
<text x="552" y="187" text-anchor="start" font-family="monospace" font-size="13" font-weight="800" fill="#7dd3fc">PROCESS</text>
<text x="790" y="187" text-anchor="start" font-family="monospace" font-size="13" font-weight="800" fill="#7dd3fc">CPU</text>
<text x="890" y="187" text-anchor="start" font-family="monospace" font-size="13" font-weight="800" fill="#7dd3fc">MEM</text>
<text x="1000" y="187" text-anchor="start" font-family="monospace" font-size="13" font-weight="800" fill="#7dd3fc">STATE</text>
<rect x="532" y="200" width="530" height="34" rx="7" fill="#0e1726"/>
<text x="552" y="222" text-anchor="start" font-family="monospace" font-size="15" font-weight="650" fill="#e5eef8">renderer</text>
<text x="802" y="222" text-anchor="end" font-family="monospace" font-size="15" font-weight="550" fill="#dbe7f3">41.2</text>
<text x="930" y="222" text-anchor="end" font-family="monospace" font-size="15" font-weight="550" fill="#dbe7f3">118 MB</text>
<text x="1000" y="222" text-anchor="start" font-family="monospace" font-size="15" font-weight="700" fill="#34d399">steady</text>
<rect x="532" y="238" width="530" height="34" rx="7" fill="#0e1726"/>
<text x="552" y="260" text-anchor="start" font-family="monospace" font-size="15" font-weight="650" fill="#e5eef8">input-loop</text>
<text x="802" y="260" text-anchor="end" font-family="monospace" font-size="15" font-weight="550" fill="#dbe7f3">12.8</text>
<text x="930" y="260" text-anchor="end" font-family="monospace" font-size="15" font-weight="550" fill="#dbe7f3">42 MB</text>
<text x="1000" y="260" text-anchor="start" font-family="monospace" font-size="15" font-weight="700" fill="#7dd3fc">ready</text>
<rect x="532" y="276" width="530" height="34" rx="7" fill="#0e1726"/>
<text x="552" y="298" text-anchor="start" font-family="monospace" font-size="15" font-weight="650" fill="#e5eef8">layout</text>
<text x="802" y="298" text-anchor="end" font-family="monospace" font-size="15" font-weight="550" fill="#dbe7f3">8.4</text>
<text x="930" y="298" text-anchor="end" font-family="monospace" font-size="15" font-weight="550" fill="#dbe7f3">51 MB</text>
<text x="1000" y="298" text-anchor="start" font-family="monospace" font-size="15" font-weight="700" fill="#c4b5fd">clean</text>
<rect x="532" y="314" width="530" height="34" rx="7" fill="#0e1726"/>
<text x="552" y="336" text-anchor="start" font-family="monospace" font-size="15" font-weight="650" fill="#e5eef8">watcher</text>
<text x="802" y="336" text-anchor="end" font-family="monospace" font-size="15" font-weight="550" fill="#dbe7f3">2.1</text>
<text x="930" y="336" text-anchor="end" font-family="monospace" font-size="15" font-weight="550" fill="#dbe7f3">19 MB</text>
<text x="1000" y="336" text-anchor="start" font-family="monospace" font-size="15" font-weight="700" fill="#94a3b8">idle</text>
<rect x="72" y="390" width="1014" height="188" rx="12" fill="#0b111c" stroke="#233047" stroke-width="1"/>
<rect x="72" y="390" width="1014" height="36" rx="12" fill="#111a2a"/>
<rect x="72" y="415" width="1014" height="11" fill="#111a2a"/>
<rect x="88" y="403" width="8" height="8" rx="2" fill="#7dd3fc"/>
<text x="106" y="414" text-anchor="start" font-family="monospace" font-size="14" font-weight="700" fill="#e8f0fb">Latency + Event Stream</text>
<path d="M110 520 L145 512 L180 528 L215 496 L250 504 L285 478 L320 494 L355 458 L390 474 L425 456 L460 470 L495 444 L530 456 L565 438 L600 454 L635 430 L670 442 L705 426 L740 434 L775 418 L810 430 L845 416 L880 426 L915 410 L950 424 L985 408 L1020 418" fill="none" stroke="#7dd3fc" stroke-width="4" stroke-linecap="round" stroke-linejoin="round"/>
<path d="M110 520 L145 512 L180 528 L215 496 L250 504 L285 478 L320 494 L355 458 L390 474 L425 456 L460 470 L495 444 L530 456 L565 438 L600 454 L635 430 L670 442 L705 426 L740 434 L775 418 L810 430 L845 416 L880 426 L915 410 L950 424 L985 408 L1020 418 L1020 542 L110 542 Z" fill="#7dd3fc" opacity="0.08"/>
<text x="104" y="432" text-anchor="start" font-family="monospace" font-size="13" font-weight="600" fill="#8fa3bd">p95 frame time</text>
<text x="104" y="462" text-anchor="start" font-family="monospace" font-size="34" font-weight="800" fill="#e8f0fb">1.18ms</text>
<text x="844" y="552" text-anchor="start" font-family="monospace" font-size="14" font-weight="650" fill="#8fa3bd">automatic resize + diff renderer</text>
</svg>
